<?xml version="1.0" encoding="UTF-8"?>
<svg width="221px" height="82px" viewBox="0 0 221 82" version="1.1" xmlns="http://www.w3.org/2000/svg" xmlns:xlink="http://www.w3.org/1999/xlink">
    <!-- Generator: sketchtool 56.3 (101010) - https://sketch.com -->
    <title>E04BEBB3-D64A-4DD3-BA0A-F1CAC49730F4@1.00x</title>
    <desc>Created with sketchtool.</desc>
    <g id="Page" stroke="none" stroke-width="1" fill="none" fill-rule="evenodd">
        <g id="API-Documentation" transform="translate(-20.000000, -30.000000)" fill-rule="nonzero">
            <g id="Sidebar">
                <g id="sw-pingdom-logo" transform="translate(20.000000, 30.000000)">
                    <path d="M180.421205,59.3948594 C180.425199,59.5676914 180.395037,59.739612 180.33245,59.9007631 C180.273344,60.049316 180.185926,60.1849639 180.07506,60.3001606 C179.966425,60.410721 179.836626,60.4982594 179.693414,60.5575502 C179.3726,60.6757345 179.020171,60.6757345 178.699357,60.5575502 C178.551855,60.5014862 178.418519,60.4136058 178.308835,60.3001606 C178.201036,60.1876632 178.116575,60.0549378 178.060321,59.9096386 C177.99855,59.7451747 177.968436,59.5705132 177.971566,59.3948594 C177.967781,59.2191561 177.997917,59.0443717 178.060321,58.8800803 C178.121644,58.73268 178.208811,58.5974222 178.317711,58.4806827 C178.429713,58.3700658 178.562415,58.2826033 178.708233,58.2232932 C178.863462,58.1616552 179.029394,58.1314857 179.196386,58.1345382 C179.36626,58.1314786 179.535097,58.1616281 179.693414,58.2232932 C179.839232,58.2826033 179.971934,58.3700658 180.083936,58.4806827 C180.190131,58.5977774 180.274319,58.733079 180.33245,58.8800803 C180.394854,59.0443717 180.42499,59.2191561 180.421205,59.3948594 L180.421205,59.3948594 Z M180.25257,59.3948594 C180.257453,59.2306029 180.227193,59.0671982 180.163815,58.9155823 C180.114322,58.7862308 180.038801,58.6684172 179.941928,58.5694378 C179.851585,58.4725812 179.738809,58.399429 179.613534,58.3564257 C179.481055,58.3027461 179.339324,58.275606 179.196386,58.2765462 C179.056411,58.2765226 178.917761,58.3036608 178.788112,58.3564257 C178.660983,58.4009187 178.545647,58.4737623 178.450843,58.5694378 C178.356754,58.6706043 178.281598,58.787847 178.228956,58.9155823 C178.172957,59.0690368 178.145873,59.2315381 178.149076,59.3948594 C178.146561,59.5552371 178.173641,59.7147037 178.228956,59.865261 C178.281598,59.9929964 178.356754,60.110239 178.450843,60.2114056 C178.545647,60.307081 178.660983,60.3799247 178.788112,60.4244177 C178.917761,60.4771826 179.056411,60.5043208 179.196386,60.5042972 C179.339324,60.5052374 179.481055,60.4780973 179.613534,60.4244177 C179.738809,60.3814144 179.851585,60.3082622 179.941928,60.2114056 C180.041601,60.1129288 180.120125,59.9951432 180.172691,59.865261 C180.228006,59.7147037 180.255085,59.5552371 180.25257,59.3948594 L180.25257,59.3948594 Z M179.507028,60.0605221 L179.143133,59.510241 L179.036627,59.510241 L179.036627,60.0427711 L178.734859,60.0427711 L178.734859,58.6493173 L179.169759,58.6493173 C179.30702,58.6378294 179.443499,58.6790905 179.551406,58.7646988 C179.644093,58.8401085 179.693853,58.9562162 179.684538,59.0753414 C179.692577,59.2482121 179.583292,59.404855 179.418273,59.456988 L179.791044,60.0072691 L179.507028,60.0605221 Z M179.418273,59.0930924 C179.418273,58.9688353 179.338394,58.8978313 179.18751,58.8978313 L179.036627,58.8978313 L179.036627,59.2972289 L179.169759,59.2972289 C179.338394,59.2972289 179.418273,59.2351004 179.418273,59.0930924 L179.418273,59.0930924 Z" id="Shape" fill="#454545"></path>
                    <path d="M5.79570281,50.2708434 C3.85094421,50.2942727 1.91971455,49.9447834 0.106506024,49.2412851 L0.106506024,46.303494 C1.94110775,46.9000067 3.838065,47.2841629 5.7602008,47.4484337 C7.62405622,47.4484337 9.44353414,47.1022892 9.44353414,44.8656627 C9.44353414,43.1349398 8.17433735,42.7532932 6.58562249,42.3006426 L5.10341365,41.8923695 C3.16855422,41.3420884 0,40.5521687 0,36.6913253 C0,32.3423293 3.5502008,31.3127711 7.10040161,31.3127711 C8.86219833,31.2549785 10.612195,31.6201951 12.2038153,32.3778313 L12.2038153,35.2091165 C10.5509042,34.4858124 8.77121651,34.0966943 6.96726908,34.0641767 C4.68626506,34.0641767 3.23955823,34.5168273 3.23955823,36.4783133 C3.23955823,38.1735341 4.55313253,38.5818072 6.13297189,38.9989558 L7.90807229,39.4782329 C10.0115663,40.0285141 12.7008434,41.2533333 12.7008434,44.7236546 C12.7008434,49.0992771 9.56779116,50.2708434 5.7424498,50.2708434 L5.79570281,50.2708434 Z M24.9579116,50.2708434 C28.3661044,50.2708434 33.4695181,49.2324096 33.4695181,40.7918072 C33.4695181,32.3512048 28.2240964,31.3127711 24.9579116,31.3127711 C21.4077108,31.3127711 16.4374297,32.6884739 16.4374297,40.7918072 C16.4374297,49.1347791 21.3988353,50.2708434 24.9579116,50.2708434 L24.9579116,50.2708434 Z M24.9579116,33.8600402 C26.8483936,33.8600402 30.0258233,34.3481928 30.0258233,40.7918072 C30.0258233,47.0046586 26.644257,47.6880723 24.9579116,47.6880723 C23.5378313,47.6880723 19.89,47.1999197 19.89,40.7918072 C19.89,34.3836948 23.0585542,33.8600402 24.9579116,33.8600402 L24.9579116,33.8600402 Z M37.9338956,49.9246988 L41.3864659,49.9246988 L41.3864659,25.6502008 L37.9338956,25.6502008 L37.9338956,49.9246988 Z M61.3652209,49.9246988 L61.3652209,37.587751 C61.3652209,32.7949799 58.6049398,31.3127711 54.6109639,31.3127711 C52.2866973,31.3466283 49.9860953,31.7851242 47.8123293,32.6085944 L47.8123293,35.395502 C49.8622842,34.658991 52.0095178,34.228348 54.1849398,34.1174297 C56.5635743,34.1174297 57.9747791,34.6677108 57.9747791,37.0463454 L57.9747791,38.6350602 L53.9364257,38.6350602 C51.00751,38.6350602 46.250241,39.60249 46.250241,44.6704016 C46.250241,49.2856627 49.3211647,50.2885944 52.1080723,50.2885944 C54.396812,50.2862231 56.5722709,49.292375 58.0724096,47.5638153 L58.4185542,49.9424498 L61.3652209,49.9246988 Z M57.9126506,45.2029317 C57.9126506,45.2029317 55.4363855,47.5815663 52.915743,47.5815663 C51.0873896,47.5815663 49.6406827,46.8892771 49.6406827,44.5461446 C49.6406827,41.5817269 51.5045382,40.7563052 54.6375904,40.7208032 L57.9126506,40.7208032 L57.9126506,45.2029317 Z M73.8885542,34.3836948 C74.8696814,34.3631848 75.8448229,34.5413066 76.7553414,34.9073494 L76.7553414,31.7654217 C75.9840416,31.3883449 75.126411,31.2229447 74.2702008,31.2861446 C72.4101897,31.3202558 70.7414239,32.4373922 70.0010843,34.1440562 L69.5484337,31.6234137 L66.8236546,31.6234137 L66.8236546,49.8980723 L70.2673494,49.8980723 L70.2673494,36.5848193 C70.2673494,36.5848193 71.8560643,34.3748193 73.8885542,34.3748193 L73.8885542,34.3836948 Z M108.787028,31.6145382 L104.917309,31.6145382 L102.716185,42.1053815 C102.130402,44.8301606 101.571245,48.3182329 101.571245,48.3182329 C101.571245,48.3182329 100.816827,44.4840161 100.089036,42.1053815 L96.9559839,31.6145382 L91.9945783,31.6145382 L88.8526506,42.1053815 C88.1337349,44.5195181 87.4059438,48.3182329 87.4059438,48.3182329 C87.4059438,48.3182329 86.8201606,44.5283936 86.3053815,42.1053815 L84.0953815,31.6145382 L80.1724096,31.6145382 L84.9918072,49.8891968 L89.7490763,49.8891968 L92.5803614,40.1261446 C93.2992771,37.605502 94.4708434,33.3008835 94.4708434,33.3008835 C94.4708434,33.3008835 95.5714056,37.57 96.3346988,40.1616466 L99.1659839,49.8803213 L103.958755,49.8803213 L108.787028,31.6145382 Z M113.091647,49.8891968 L116.535341,49.8891968 L116.535341,31.5346586 L113.091647,31.5346586 L113.091647,49.8891968 Z M138.138313,49.8891968 L138.138313,37.445743 C138.138313,32.7949799 135.582169,31.3127711 132.209478,31.3127711 C128.313133,31.3127711 125.277711,34.2416867 125.277711,34.2416867 L124.594297,31.6500402 L121.931647,31.6500402 L121.931647,49.9246988 L125.375341,49.9246988 L125.375341,36.6114458 C125.375341,36.6114458 128.339759,34.3038153 131.410683,34.3038153 C133.753815,34.3038153 134.685743,35.1913655 134.685743,37.4368675 L134.685743,49.9513253 L138.138313,49.8891968 Z M158.720602,49.8891968 L158.720602,25.6502008 L155.276908,25.6502008 L155.276908,33.167751 C153.998377,31.900392 152.246845,31.2274689 150.448635,31.3127711 C147.998996,31.3127711 142.176667,32.4843373 142.176667,40.7918072 C142.176667,49.0992771 146.898434,50.2708434 149.756345,50.2708434 C152.022987,50.3232187 154.190845,49.3437648 155.649679,47.6081928 L156.031325,49.9158233 L158.720602,49.8891968 Z M155.276908,45.4070683 C155.276908,45.4070683 152.9249,47.5105622 150.448635,47.5105622 C148.309639,47.5105622 145.620361,46.7827711 145.620361,40.7563052 C145.620361,35.0316064 148.283012,34.0286747 150.794779,34.0286747 C152.453831,34.1081503 154.03563,34.7533989 155.276908,35.8570281 L155.276908,45.4070683 Z M169.326827,50.2353414 C173.152169,50.2353414 176.294096,49.0637751 176.294096,44.6881526 C176.294096,41.2355823 173.631446,39.993012 171.49245,39.4427309 L169.717349,38.9634538 C168.128635,38.5463052 166.823936,38.1380321 166.823936,36.4428112 C166.823936,34.4813253 168.261767,34.0286747 170.542771,34.0286747 C172.346719,34.0611923 174.126406,34.4503104 175.779317,35.1736145 L175.779317,32.3423293 C174.190716,31.5850964 172.443688,31.219864 170.684779,31.2772691 C167.063574,31.2772691 163.584378,32.3068273 163.584378,36.6558233 C163.584378,40.5166667 166.752932,41.3065863 168.678916,41.8568675 L170.17,42.2651406 C171.749839,42.7177912 173.019036,43.0994378 173.019036,44.8301606 C173.019036,47.0667871 171.243936,47.4129317 169.335703,47.4129317 C167.413567,47.2486609 165.51661,46.8645047 163.682008,46.267992 L163.682008,49.2057831 C165.495217,49.9092814 167.426446,50.2587707 169.371205,50.2353414 L169.326827,50.2353414 Z" id="Shape" fill="#454545"></path>
                    <path d="M192.358755,20.5290361 C189.873614,21.2035743 187.352972,21.7627309 184.894458,22.5260241 C179.756919,17.8971933 173.290874,15.0057964 166.415663,14.2629317 C176.573821,6.96051114 188.759287,3.01349989 201.269759,2.97329317 L196.974016,6.92289157 C196.974016,6.92289157 215.177671,6.27497992 219.766305,0 C219.645066,0.651839911 219.445395,1.28661424 219.171647,1.89048193 C217.900751,5.57810936 215.599981,8.82444284 212.541647,11.245261 C209.680855,13.4838903 206.512248,15.2983659 203.133614,16.6326908 C199.789389,18.0923788 196.360179,19.349064 192.864659,20.3959036 L192.394257,20.5290361 L192.358755,20.5290361 Z M220.946747,19.907751 C209.364727,19.360705 197.775686,20.8292308 186.696185,24.2478715 C189.024819,26.6771067 190.967433,29.4488487 192.456386,32.4665863 C201.633655,27.3542972 214.361124,20.8308032 220.946747,19.907751 L220.946747,19.907751 Z M193.610201,35.0848594 C194.693486,37.8735967 195.392187,40.7967947 195.687068,43.7739759 L211.662972,27.3276707 L193.610201,35.0848594 Z M202.237189,43.7384739 C202.753431,43.7800401 203.249271,43.5281474 203.520146,43.0867167 C203.79102,42.645286 203.79102,42.0891317 203.520146,41.647701 C203.249271,41.2062703 202.753431,40.9543776 202.237189,40.9959438 C201.720946,40.9543776 201.225106,41.2062703 200.954232,41.647701 C200.683357,42.0891317 200.683357,42.645286 200.954232,43.0867167 C201.225106,43.5281474 201.720946,43.7800401 202.237189,43.7384739 L202.237189,43.7384739 Z M202.237189,41.2977108 C202.821716,41.3123286 203.285161,41.7954497 203.275476,42.3800793 C203.265791,42.9647089 202.786598,43.4322145 202.201908,43.4274633 C201.617217,43.4227121 201.145685,42.9474808 201.145502,42.3627711 C201.12612,42.0700398 201.235881,41.7834989 201.445871,41.5786301 C201.655862,41.3737613 201.945025,41.2711077 202.237189,41.2977108 L202.237189,41.2977108 Z M202.814096,43.0728112 L202.698715,42.7621687 C202.662415,42.6451644 202.598486,42.5386162 202.512329,42.4515261 C202.667403,42.3981332 202.771025,42.2516337 202.769719,42.0876305 C202.769719,41.7237349 202.476827,41.6704819 202.201687,41.6704819 L201.766787,41.6704819 L201.766787,43.0728112 L202.068554,43.0728112 L202.068554,42.5314056 L202.246064,42.5314056 C202.328609,42.6205587 202.384028,42.731396 202.405823,42.8509237 L202.467952,43.0816867 L202.814096,43.0728112 Z M202.201687,41.8923695 C202.414699,41.8923695 202.467952,41.8923695 202.467952,42.0876305 C202.467952,42.2828916 202.379197,42.3272691 202.068554,42.3272691 L202.068554,41.8923695 L202.201687,41.8923695 L202.201687,41.8923695 Z" id="Shape" fill="#F99E1E"></path>
                    <path d="M86.4828916,76.1606827 C84.9965714,76.2308643 83.5703677,75.5675138 82.6664257,74.3855823 L82.5066667,74.3855823 C82.6131727,75.4772691 82.6664257,76.1606827 82.6664257,76.3736948 L82.6664257,81.698996 L79.9150201,81.698996 L79.9150201,62.9894378 L82.1427711,62.9894378 C82.2048996,63.2290763 82.3291566,63.8059839 82.5244177,64.7201606 L82.6664257,64.7201606 C83.5059697,63.4174951 84.9798078,62.6653294 86.5272691,62.7497992 C88.002193,62.6868319 89.4145167,63.3498947 90.3082329,64.5248996 C92.1238164,67.5674427 92.1238164,71.3607903 90.3082329,74.4033333 C89.3976963,75.5800257 87.9688057,76.2364534 86.4828916,76.1606827 Z M85.8172289,65.0041767 C84.9116406,64.9257109 84.0224998,65.2813672 83.4208434,65.9627309 C82.8460294,66.8754729 82.5814206,67.949473 82.6664257,69.0247791 L82.6664257,69.4330522 C82.5715214,70.6246525 82.8341905,71.8174796 83.4208434,72.858996 C84.0031441,73.6015821 84.9216738,73.9990549 85.8616064,73.9151807 C86.7523198,73.9476357 87.5922039,73.5006006 88.0627309,72.7436145 C88.6365368,71.7289508 88.9046964,70.5700081 88.8348996,69.4064257 C88.9079675,68.2577944 88.6425861,67.1129517 88.0716064,66.1136145 C87.5639507,65.3772286 86.7104084,64.9571783 85.8172289,65.0041767 Z" id="Shape" fill="#454545"></path>
                    <path d="M94.0891968,59.5546185 C94.0613955,59.139916 94.2058931,58.7321116 94.4885944,58.4274297 C94.8046443,58.1459203 95.2199577,58.002158 95.6424096,58.0280321 C96.0569655,58.001291 96.4643629,58.1456445 96.7695984,58.4274297 C97.2983532,59.0792208 97.2983532,60.0122652 96.7695984,60.6640562 C96.4652612,60.9481589 96.0580924,61.0956373 95.6424096,61.0723293 C95.218714,61.0957913 94.8032405,60.9487776 94.4885944,60.6640562 C94.2095918,60.3642729 94.0652947,59.9634475 94.0891968,59.5546185 L94.0891968,59.5546185 Z M97.0003614,75.9299197 L94.2489558,75.9299197 L94.2489558,62.9894378 L97.0003614,62.9894378 L97.0003614,75.9299197 Z" id="Shape" fill="#454545"></path>
                    <path d="M111.715944,75.9299197 L108.955663,75.9299197 L108.955663,67.9419679 C109.018209,67.1519296 108.804919,66.3646419 108.352129,65.7142169 C107.865567,65.1847652 107.160007,64.9123863 106.443896,64.9775502 C105.476403,64.8933798 104.526809,65.2758555 103.887751,66.0071084 C103.259461,67.0400295 102.976559,68.246246 103.08008,69.4508032 L103.08008,75.9032932 L100.328675,75.9032932 L100.328675,62.9894378 L102.485422,62.9894378 L102.875944,64.6846586 L103.009076,64.6846586 C103.413597,64.0554414 103.993722,63.5586324 104.677671,63.2557028 C105.422803,62.9115023 106.235591,62.7386333 107.056305,62.7497992 C110.162731,62.7497992 111.715944,64.3296386 111.715944,67.4893173 L111.715944,75.9299197 Z" id="Path" fill="#454545"></path>
                    <path d="M125.916747,62.9894378 L125.916747,64.4982731 L123.706747,64.9065462 C123.92603,65.2128054 124.096677,65.5511067 124.212651,65.9094779 C124.345616,66.3192786 124.411551,66.7478578 124.407912,67.1786747 C124.462495,68.382858 123.954098,69.5439707 123.032209,70.3206024 C121.938566,71.1417462 120.590108,71.5503697 119.224618,71.4744177 C118.849638,71.4763307 118.475281,71.4436487 118.106305,71.3767871 C117.600395,71.6147655 117.261421,72.1062782 117.218755,72.6637349 C117.215833,72.948059 117.37876,73.2080484 117.635904,73.3293976 C118.122352,73.5143574 118.643515,73.5901079 119.16249,73.5512851 L121.425743,73.5512851 C122.578701,73.4616272 123.72699,73.7753673 124.674177,74.4388353 C125.446373,75.0994568 125.85827,76.0880095 125.783614,77.1014859 C125.838544,78.4672476 125.162248,79.7589743 124.008514,80.4919277 C122.410634,81.384133 120.589521,81.797042 118.763092,81.681245 C117.357859,81.7693882 115.957449,81.4455048 114.733614,80.7493173 C113.827401,80.1738925 113.296401,79.159244 113.340161,78.0866667 C113.3191,77.3450246 113.59,76.6247494 114.094578,76.0808032 C114.653045,75.5062219 115.369816,75.110762 116.153695,74.944739 C115.788573,74.7884639 115.479201,74.525497 115.266145,74.1903213 C115.03435,73.8730813 114.907158,73.4915031 114.902249,73.0986345 C114.891308,72.652523 115.035619,72.2164554 115.310522,71.8649398 C115.662745,71.4699431 116.076319,71.1342882 116.535341,70.8708835 C115.857713,70.5813652 115.286965,70.0881646 114.902249,69.4596787 C113.849141,67.6659389 114.137101,65.387775 115.603414,63.91249 C116.679583,63.0764411 118.02439,62.662897 119.384378,62.7497992 C119.770329,62.7507973 120.155786,62.7774828 120.538193,62.8296787 C120.836779,62.8664152 121.133088,62.9197508 121.425743,62.9894378 L125.916747,62.9894378 Z M115.70992,77.9446586 C115.698652,78.514052 116.007095,79.041832 116.508715,79.3114859 C117.20485,79.6669988 117.982538,79.8323339 118.763092,79.7907631 C119.915494,79.8643756 121.067526,79.6413033 122.109157,79.1428514 C122.768248,78.8280796 123.193915,78.1689833 123.209719,77.438755 C123.249098,76.9577911 123.016098,76.4952159 122.606185,76.2405622 C121.896239,75.946498 121.126719,75.8248348 120.360683,75.8855422 L118.283815,75.8855422 C117.611857,75.8459183 116.94693,76.0403779 116.402209,76.4358233 C115.943259,76.7989812 115.685896,77.3599008 115.70992,77.9446586 L115.70992,77.9446586 Z M116.890361,67.2230522 C116.849989,67.9038244 117.072368,68.5741368 117.511647,69.0957831 C117.988495,69.5476023 118.630965,69.7821038 119.286747,69.7436948 C120.875462,69.7436948 121.674257,68.8561446 121.674257,67.1964257 C121.717634,66.4979188 121.506368,65.8073629 121.079598,65.2526908 C120.621408,64.7677738 119.970009,64.5137284 119.304498,64.5604016 C118.642245,64.5235719 117.995972,64.772387 117.529398,65.2438153 C117.075361,65.7998842 116.847228,66.5064619 116.890361,67.2230522 Z" id="Shape" fill="#454545"></path>
                    <path d="M132.52012,76.1606827 C131.045197,76.22365 129.632873,75.5605873 128.739157,74.3855823 C126.917712,71.3446577 126.917712,67.5480733 128.739157,64.5071486 C129.643227,63.3302926 131.064109,62.6678766 132.546747,62.7320482 C134.082646,62.645833 135.553641,63.3611799 136.434217,64.6225301 L136.567349,64.6225301 C136.450802,63.8941311 136.382607,63.1588149 136.363213,62.4214056 L136.363213,57.6996386 L139.123494,57.6996386 L139.123494,75.9121687 L136.975622,75.9121687 L136.567349,74.2346988 L136.434217,74.2346988 C135.55688,75.517899 134.07209,76.2485098 132.52012,76.1606827 L132.52012,76.1606827 Z M133.256787,73.9418072 C134.183569,74.0234208 135.095555,73.6691242 135.724177,72.983253 C136.337066,72.071025 136.63331,70.9827178 136.567349,69.8857028 L136.567349,69.4951807 C136.67493,68.28303 136.395254,67.0679942 135.768554,66.0248594 C135.153298,65.297627 134.223628,64.9138487 133.274538,64.9953012 C132.373873,64.9610444 131.522585,65.406957 131.037912,66.1668675 C130.455722,67.1849901 130.184215,68.3512347 130.256867,69.5218072 C130.181496,70.6649826 130.447146,71.8048064 131.020161,72.7968675 C131.513728,73.5438911 132.362177,73.9782158 133.256787,73.9418072 L133.256787,73.9418072 Z" id="Shape" fill="#454545"></path>
                    <path d="M153.963333,69.4330522 C154.069313,71.2301018 153.488757,73.0003221 152.339116,74.3855823 C151.159354,75.6060939 149.507546,76.2538619 147.81261,76.1606827 C146.687749,76.1818725 145.577931,75.8998192 144.599679,75.3441365 C143.668757,74.7901591 142.924063,73.971304 142.460683,72.9921285 C141.945293,71.8808654 141.690305,70.6666383 141.715141,69.4419277 C141.605935,67.6567778 142.183893,65.8974961 143.330482,64.5248996 C144.51779,63.2991551 146.179967,62.6511328 147.883614,62.7497992 C149.551732,62.6612983 151.174454,63.3103871 152.321365,64.5248996 C153.476166,65.8907986 154.063761,67.6472306 153.963333,69.4330522 Z M144.546426,69.4330522 C144.546426,72.4270549 145.649946,73.9210977 147.856988,73.9151982 C150.064029,73.9092637 151.155716,72.4152209 151.132048,69.4330522 C151.132048,66.4745515 150.031486,64.9953012 147.830361,64.9953012 C146.850859,64.9135491 145.89937,65.3472671 145.318594,66.140241 C144.745643,67.1388046 144.480122,68.2842481 144.555301,69.4330522 L144.546426,69.4330522 Z" id="Shape" fill="#454545"></path>
                    <path d="M167.42747,75.9299197 L164.667189,75.9299197 L164.667189,67.9419679 C164.724887,67.1614032 164.528753,66.3830954 164.108032,65.7230924 C163.671465,65.2041032 163.008174,64.9321539 162.332932,64.9953012 C161.430379,64.9191231 160.551,65.306986 159.998675,66.0248594 C159.414174,67.0734313 159.154664,68.2721231 159.253133,69.4685542 L159.253133,75.9210442 L156.501727,75.9210442 L156.501727,62.9894378 L158.658474,62.9894378 L159.048996,64.6846586 L159.182129,64.6846586 C159.545381,64.0605592 160.090312,63.5620709 160.744217,63.2557028 C161.446271,62.9145136 162.21807,62.7413148 162.998594,62.7497992 C164.986707,62.7497992 166.306198,63.4302544 166.957068,64.7911647 L167.143454,64.7911647 C167.525896,64.1457922 168.086901,63.6248593 168.758795,63.2912048 C169.513643,62.9290279 170.345102,62.7554266 171.181807,62.7853012 C172.422193,62.6727375 173.651005,63.0995881 174.554498,63.9568675 C175.333324,64.9690147 175.709596,66.2337935 175.610683,67.5070683 L175.610683,75.9476707 L172.868153,75.9476707 L172.868153,67.9597189 C172.92322,67.1781747 172.723954,66.399789 172.30012,65.7408434 C171.860828,65.2256031 171.199572,64.9544879 170.52502,65.0130522 C169.627947,64.9384052 168.751625,65.3101783 168.181888,66.0071084 C167.617552,66.9272669 167.356746,68.0015426 167.436345,69.0780321 L167.42747,75.9299197 Z" id="Path" fill="#454545"></path>
                </g>
            </g>
        </g>
    </g>
</svg>